<?xml version="1.0" standalone="no"?>
<!DOCTYPE svg PUBLIC "-//W3C//DTD SVG 20010904//EN"
 "http://www.w3.org/TR/2001/REC-SVG-20010904/DTD/svg10.dtd">
<svg version="1.0" xmlns="http://www.w3.org/2000/svg"
 width="456.000000pt" height="547.000000pt" viewBox="0 0 456.000000 547.000000"
 preserveAspectRatio="xMidYMid meet">

<g transform="translate(0.000000,547.000000) scale(0.100000,-0.100000)"
fill="#000000" stroke="none">
<path d="M210 5212 c-7 -3 -10 -836 -10 -2478 l0 -2474 2040 0 2040 0 0 1820
0 1820 -722 2 -723 3 0 653 c0 427 -3 652 -10 653 -29 3 -2607 3 -2615 1z
m2584 -58 c3 -9 6 -303 6 -655 l0 -639 718 -2 717 -3 3 -1777 2 -1778 -1999 0
c-1813 0 -1999 1 -2005 16 -8 20 -8 4818 0 4838 6 14 128 16 1279 16 1151 0
1273 -2 1279 -16z"/>
<path d="M2091 4168 c-13 -44 -42 -127 -91 -258 -15 -41 -38 -109 -50 -150
-13 -41 -38 -114 -57 -162 -19 -48 -33 -94 -31 -102 2 -8 0 -16 -3 -18 -11 -6
-290 257 -382 360 -33 38 -47 48 -47 35 0 -31 57 -332 79 -417 25 -93 27 -156
7 -156 -7 0 -40 12 -72 26 -72 32 -349 134 -364 134 -6 0 4 -19 23 -42 19 -24
51 -68 70 -98 50 -75 141 -174 130 -140 -4 14 -8 43 -8 65 0 34 4 41 22 43 12
2 45 -9 75 -24 29 -15 89 -38 133 -51 44 -13 88 -27 98 -30 22 -7 22 5 -5 69
-16 41 -22 81 -26 176 -4 121 2 152 31 152 5 0 59 -50 120 -111 125 -126 139
-131 174 -59 28 57 111 264 124 311 6 19 20 41 31 48 36 23 48 -8 48 -123 0
-111 32 -352 48 -368 17 -17 52 -2 119 47 46 34 70 46 90 43 26 -3 28 -6 27
-48 -1 -25 -7 -73 -14 -108 -17 -79 -10 -89 54 -73 70 17 95 14 108 -13 9 -21
6 -33 -16 -76 -34 -65 -27 -75 12 -18 46 66 178 178 263 223 16 8 27 35 15 35
-14 0 -151 -32 -211 -50 -84 -24 -118 -25 -136 -4 -18 22 -14 95 10 189 12 43
21 92 21 108 l0 28 -27 -19 c-16 -11 -61 -34 -102 -52 -40 -17 -88 -40 -105
-51 -57 -35 -51 -47 -92 191 -25 144 -35 229 -54 450 -6 63 -14 118 -18 122
-5 5 -14 -11 -21 -34z"/>
<path d="M2093 3695 c0 -27 2 -38 4 -22 2 15 2 37 0 50 -2 12 -4 0 -4 -28z"/>
<path d="M1620 3541 c0 -15 251 -251 261 -245 18 11 9 34 -13 34 -15 0 -57 36
-130 110 -60 61 -111 110 -113 110 -3 0 -5 -4 -5 -9z"/>
<path d="M1046 3440 c7 -14 100 -139 112 -150 2 -3 -6 14 -19 37 -22 39 -110
145 -93 113z"/>
<path d="M1320 3259 c0 -5 9 -9 20 -9 11 0 20 2 20 4 0 2 -9 6 -20 9 -11 3
-20 1 -20 -4z"/>
<path d="M1541 3176 c2 -2 30 -16 62 -30 56 -24 57 -25 57 -4 0 14 -5 18 -15
14 -8 -3 -30 1 -49 9 -33 14 -65 20 -55 11z"/>
<path d="M2505 3120 c3 -5 11 -10 16 -10 6 0 7 5 4 10 -3 6 -11 10 -16 10 -6
0 -7 -4 -4 -10z"/>
<path d="M2365 3100 c3 -5 10 -10 16 -10 5 0 9 5 9 10 0 6 -7 10 -16 10 -8 0
-12 -4 -9 -10z"/>
<path d="M2601 3063 c-17 -21 -31 -42 -31 -47 0 -6 3 -6 8 0 4 5 23 26 41 47
19 20 30 37 24 37 -6 0 -25 -17 -42 -37z"/>
<path d="M1940 3054 c-19 -14 -35 -26 -37 -28 -3 -3 95 -106 102 -106 3 0 5
11 5 24 0 12 5 38 11 55 14 39 -1 81 -28 80 -10 0 -34 -12 -53 -25z"/>
<path d="M3195 3051 c-11 -5 -58 -14 -104 -21 -46 -7 -113 -24 -150 -37 -36
-13 -75 -27 -86 -29 -11 -3 -29 -9 -40 -14 -11 -4 -48 -18 -82 -30 -35 -12
-82 -34 -105 -49 -24 -15 -78 -44 -120 -65 -84 -41 -153 -106 -163 -153 -16
-72 -69 -233 -91 -278 -14 -27 -58 -85 -99 -129 -81 -84 -72 -81 -162 -55 -39
12 -43 11 -76 -17 -19 -16 -48 -37 -65 -46 -20 -10 -34 -27 -37 -45 -4 -15
-13 -48 -22 -73 -35 -103 -25 -187 36 -288 41 -67 65 -160 58 -227 l-6 -55 27
6 c52 12 133 41 133 48 0 3 -5 32 -12 63 -18 91 0 235 26 193 4 -6 10 -48 14
-93 11 -119 31 -151 126 -201 57 -30 94 -32 156 -11 87 31 127 95 143 230 7
50 16 89 21 88 5 -1 16 -20 24 -42 8 -23 20 -41 26 -41 38 1 387 106 448 135
31 14 64 28 74 30 49 9 82 20 128 40 28 12 94 39 147 60 l97 37 -19 49 c-24
60 -26 129 -4 171 20 39 30 26 39 -54 5 -37 20 -83 45 -130 53 -102 114 -133
220 -111 64 12 159 136 160 208 0 17 7 38 14 48 12 15 18 16 33 7 27 -17 162
37 181 71 28 53 -12 209 -57 224 -30 9 -41 28 -51 89 -11 69 -54 167 -86 197
-15 14 -36 22 -57 22 -17 0 -88 -1 -156 -2 -122 -3 -124 -2 -164 26 -25 19
-52 53 -74 94 -36 69 -92 127 -147 153 -36 17 -107 20 -141 7z m47 -178 c28
-30 104 -152 118 -189 11 -29 -9 -48 -81 -73 -30 -11 -88 -33 -129 -51 -41
-17 -96 -34 -122 -37 -43 -5 -47 -4 -61 23 -8 16 -27 79 -41 139 -15 61 -29
116 -31 122 -2 7 6 19 18 27 38 25 189 65 248 65 48 1 59 -3 81 -26z m-448
-96 c17 -25 69 -229 69 -266 -1 -29 -39 -67 -74 -76 -21 -5 -33 0 -58 24 -18
17 -36 31 -40 31 -5 0 -33 -27 -63 -60 -48 -55 -63 -64 -163 -105 -60 -25
-113 -45 -117 -45 -13 0 -9 65 6 106 13 37 40 98 93 212 26 55 65 88 133 111
19 7 69 30 110 51 41 21 78 39 82 40 4 0 14 -10 22 -23z m963 -539 c12 -13 18
-36 18 -65 0 -37 -5 -49 -28 -69 -37 -32 -62 -30 -98 5 -34 35 -37 72 -10 118
28 45 82 50 118 11z m-1418 -472 c12 -13 25 -42 28 -65 5 -35 2 -44 -25 -71
-50 -49 -109 -34 -132 35 -30 91 67 167 129 101z"/>
<path d="M2476 2943 c-9 -23 2 -29 20 -11 14 13 14 16 1 21 -9 3 -18 -1 -21
-10z"/>
<path d="M626 2920 c-53 -7 -77 -29 -97 -90 -22 -63 -81 -173 -107 -197 -18
-16 -37 -23 -66 -23 -23 0 -47 -5 -54 -12 -7 -7 -12 -38 -12 -69 0 -53 2 -58
36 -84 l37 -28 -7 -256 c-10 -363 -14 -430 -27 -478 -15 -56 -8 -71 38 -78 21
-3 63 -13 93 -21 61 -17 114 -16 116 4 1 6 2 18 3 26 0 7 12 29 25 49 13 19
23 37 21 39 -4 4 251 -8 360 -17 71 -5 249 -34 329 -53 48 -12 52 -31 21 -99
-14 -33 -25 -71 -23 -84 3 -21 10 -25 58 -31 30 -3 92 -6 137 -7 l81 -1 17 48
c9 26 25 64 37 86 31 59 35 174 9 255 -30 92 -28 126 15 188 30 43 38 66 44
126 11 98 19 127 45 162 12 17 25 38 28 47 10 30 -12 72 -46 88 -45 21 -70 77
-91 206 -10 60 -25 124 -33 142 -16 36 -62 62 -110 62 -16 0 -58 9 -95 19 -36
11 -108 24 -160 31 -51 6 -106 15 -123 20 -64 19 -418 41 -499 30z m464 -199
c375 -57 406 -65 439 -105 22 -27 50 -259 32 -270 -6 -4 -29 11 -52 35 l-41
41 -81 -4 c-56 -4 -115 1 -187 14 -62 12 -195 24 -325 30 -121 5 -240 11 -265
13 -25 2 -51 4 -57 4 -24 2 -14 36 43 156 40 83 59 109 85 117 44 13 202 1
409 -31z m-477 -268 c-7 -2 -19 -2 -25 0 -7 3 -2 5 12 5 14 0 19 -2 13 -5z
m884 -88 c20 -20 33 -39 29 -42 -3 -4 -21 7 -39 25 -17 17 -43 35 -57 41 l-25
10 29 0 c19 1 39 -10 63 -34z m-871 -104 c85 -52 79 -186 -10 -229 -78 -39
-170 72 -136 163 19 50 58 83 100 84 8 1 29 -8 46 -18z m888 -144 c62 -84 -18
-223 -90 -156 -43 40 -44 111 -3 163 27 34 64 32 93 -7z"/>
<path d="M1786 2871 c-10 -11 -38 -28 -62 -38 -47 -19 -53 -32 -28 -57 18 -19
94 -22 112 -4 14 14 17 118 4 118 -5 0 -17 -9 -26 -19z"/>
<path d="M1906 2753 c-11 -27 -6 -34 16 -31 13 2 24 10 26 19 4 21 -35 32 -42
12z"/>
<path d="M2062 2671 c-17 -32 -32 -64 -32 -70 0 -12 79 -15 118 -5 35 10 30
62 -11 102 -18 18 -35 32 -38 32 -2 0 -19 -26 -37 -59z"/>
<path d="M1855 2603 c5 -15 25 -108 25 -119 0 -7 35 -4 49 5 20 13 7 54 -30
96 -33 37 -56 46 -44 18z"/>
<path d="M2000 2404 l-35 -15 35 -33 c20 -18 45 -44 57 -59 18 -23 22 -25 33
-12 20 24 4 100 -25 119 -29 19 -22 19 -65 0z"/>
<path d="M2170 965 c7 -9 29 -53 48 -98 44 -101 55 -200 25 -222 -16 -13 -8
-14 66 -15 81 0 83 1 68 18 -12 13 -17 37 -17 81 0 50 -7 80 -34 142 -19 43
-30 81 -25 84 25 16 1 25 -67 25 -68 0 -75 -2 -64 -15z"/>
<path d="M2395 956 c15 -22 15 -28 1 -61 -9 -21 -16 -43 -15 -49 0 -6 8 8 17
31 10 23 30 56 46 72 l30 31 -47 0 -47 0 15 -24z"/>
<path d="M2699 966 c17 -20 17 -302 0 -322 -11 -13 -4 -15 52 -12 l64 3 3 173
2 172 -66 0 c-56 0 -65 -2 -55 -14z"/>
<path d="M2865 970 c3 -5 12 -10 20 -10 7 0 25 -15 39 -32 l26 -33 0 43 0 42
-46 0 c-27 0 -43 -4 -39 -10z"/>
<path d="M3203 962 c14 -15 17 -42 17 -160 0 -83 -4 -143 -10 -147 -26 -16 -6
-26 48 -23 l57 3 3 173 2 172 -66 0 c-64 0 -66 -1 -51 -18z"/>
<path d="M3365 970 c3 -5 12 -10 20 -10 7 0 25 -15 39 -32 l26 -33 0 43 0 42
-46 0 c-27 0 -43 -4 -39 -10z"/>
<path d="M3691 928 c1 -49 2 -51 10 -22 5 17 16 37 24 44 22 18 18 30 -10 30
-24 0 -25 -3 -24 -52z"/>
<path d="M3780 823 c0 -132 -3 -159 -17 -175 -15 -17 -13 -18 60 -18 77 0 90
7 62 30 -12 10 -15 42 -15 166 l0 154 -45 0 -45 0 0 -157z"/>
<path d="M3920 966 c0 -8 5 -18 10 -21 6 -4 17 -21 24 -38 l14 -32 1 53 c1 49
0 52 -24 52 -15 0 -25 -6 -25 -14z"/>
<path d="M2890 858 c0 -6 -7 -19 -16 -29 -15 -17 -15 -20 5 -45 l21 -27 0 57
c0 31 -2 56 -5 56 -3 0 -5 -5 -5 -12z"/>
<path d="M3390 858 c0 -6 -7 -19 -16 -29 -15 -17 -15 -20 5 -45 l21 -27 0 57
c0 31 -2 56 -5 56 -3 0 -5 -5 -5 -12z"/>
<path d="M2908 678 c-21 -22 -38 -42 -38 -45 0 -2 19 -3 41 -1 42 3 42 3 43
46 1 23 -1 41 -4 41 -3 -1 -22 -20 -42 -41z"/>
<path d="M3431 696 c-7 -13 -24 -30 -37 -37 -36 -19 -29 -30 19 -27 42 3 42 3
45 46 3 47 -8 54 -27 18z"/>
<path d="M2544 702 c-37 -25 -15 -76 31 -70 22 2 31 9 33 26 6 40 -32 66 -64
44z"/>
<path d="M3042 701 c-8 -5 -12 -21 -10 -37 3 -26 7 -29 38 -29 29 0 36 4 38
23 6 41 -31 65 -66 43z"/>
<path d="M3540 696 c-6 -8 -10 -25 -8 -38 4 -30 56 -38 75 -12 17 23 16 29 -3
48 -19 20 -48 20 -64 2z"/>
</g>
</svg>
